<svg width="144" height="158" viewBox="0 0 144 158" fill="none" xmlns="http://www.w3.org/2000/svg">
<rect width="144" height="158" fill="#E5E5E5"/>
<rect width="144" height="158" fill="white"/>
<rect x="24" y="31" width="95" height="95" rx="8" fill="#E6EBD8"/>
<rect x="54" y="51" width="47" height="11" rx="5" fill="#EE5555"/>
<rect x="54" y="62" width="47" height="11" rx="5" fill="#FFC700"/>
<rect x="54" y="73" width="47" height="11" rx="5" fill="#4ED50E"/>
<rect x="54" y="84" width="47" height="11" rx="5" fill="#0FE2EF"/>
<rect x="54" y="95" width="47" height="11" rx="5" fill="#CA00DC"/>
<path d="M43 56.5C43 54.0147 45.0147 52 47.5 52V52C49.9853 52 52 54.0147 52 56.5V56.5C52 58.9853 49.9853 61 47.5 61V61C45.0147 61 43 58.9853 43 56.5V56.5Z" fill="#EE5555"/>
<path d="M43 67.5C43 65.0147 45.0147 63 47.5 63V63C49.9853 63 52 65.0147 52 67.5V67.5C52 69.9853 49.9853 72 47.5 72V72C45.0147 72 43 69.9853 43 67.5V67.5Z" fill="#FFC700"/>
<path d="M43 78.5C43 76.0147 45.0147 74 47.5 74V74C49.9853 74 52 76.0147 52 78.5V78.5C52 80.9853 49.9853 83 47.5 83V83C45.0147 83 43 80.9853 43 78.5V78.5Z" fill="#4ED40E"/>
<path d="M43 89.5C43 87.0147 45.0147 85 47.5 85V85C49.9853 85 52 87.0147 52 89.5V89.5C52 91.9853 49.9853 94 47.5 94V94C45.0147 94 43 91.9853 43 89.5V89.5Z" fill="#0FE2EF"/>
<path d="M43 100.5C43 98.0147 45.0147 96 47.5 96V96C49.9853 96 52 98.0147 52 100.5V100.5C52 102.985 49.9853 105 47.5 105V105C45.0147 105 43 102.985 43 100.5V100.5Z" fill="#CA00DC"/>
</svg>
